<?xml version="1.0" standalone="no"?>
<!DOCTYPE svg PUBLIC "-//W3C//DTD SVG 20010904//EN"
 "http://www.w3.org/TR/2001/REC-SVG-20010904/DTD/svg10.dtd">
<svg version="1.0" xmlns="http://www.w3.org/2000/svg"
 width="179.000000pt" height="168.000000pt" viewBox="0 0 179.000000 168.000000"
 preserveAspectRatio="xMidYMid meet">

<g transform="translate(0.000000,168.000000) scale(0.100000,-0.100000)"
fill="#000000" stroke="none">
<path d="M767 1660 c-64 -11 -178 -47 -197 -61 -12 -9 -11 -10 5 -4 93 31 222
52 250 41 13 -5 14 -10 5 -27 -15 -27 -6 -35 24 -21 14 6 23 18 23 29 -2 13 5
18 23 18 17 0 25 -5 25 -18 0 -19 21 -37 43 -37 10 0 12 8 7 30 -7 30 -6 30
35 30 57 0 213 -37 236 -56 17 -14 15 -15 -31 -10 -34 4 -59 1 -79 -9 -15 -8
-32 -15 -37 -15 -17 0 -89 -35 -89 -43 0 -4 -10 -5 -22 -2 -13 3 -30 1 -38 -5
-13 -8 -12 -12 7 -32 l22 -22 -30 -18 c-38 -23 -61 -23 -101 2 -18 11 -28 20
-21 20 14 0 37 39 28 48 -3 3 -16 7 -28 8 -32 2 -67 15 -67 24 0 4 -17 11 -37
15 -21 4 -41 12 -45 18 -5 8 -32 11 -73 10 -40 -1 -63 2 -60 7 11 17 -4 11
-71 -30 -88 -53 -164 -120 -223 -194 -50 -64 -114 -173 -126 -216 -4 -14 12
10 34 53 47 91 68 122 129 195 l45 54 35 -35 35 -36 34 26 c38 29 41 39 13 48
-13 4 -20 15 -20 30 0 23 9 19 180 -68 99 -51 180 -98 180 -105 0 -10 -5 -10
-20 -2 -28 15 -146 -47 -200 -106 -26 -28 -46 -42 -53 -37 -25 16 -36 12 -28
-10 9 -25 4 -47 -10 -47 -6 0 -7 5 -4 10 3 6 2 10 -4 10 -5 0 -12 8 -14 18 -2
9 -3 7 -2 -5 1 -13 -2 -23 -6 -23 -5 0 -6 -7 -3 -15 4 -8 10 -12 15 -9 16 10
9 -9 -8 -22 -16 -12 -15 -13 10 -4 15 5 27 8 27 5 0 -2 -12 -12 -27 -20 -26
-15 -16 -14 24 2 12 5 14 3 8 -7 -5 -9 -4 -11 3 -6 15 9 15 39 1 53 -7 7 -6
15 5 26 11 10 12 17 4 19 -6 2 -9 11 -6 18 3 11 8 9 17 -9 11 -19 11 -25 0
-32 -11 -7 -10 -9 3 -9 9 0 19 -6 22 -12 3 -9 13 -2 28 17 48 63 111 115 164
135 70 26 82 25 110 -6 13 -14 24 -20 24 -14 0 6 -12 22 -27 34 l-28 24 42 41
c22 23 44 41 49 41 10 0 74 -70 74 -81 0 -4 -10 -15 -22 -23 -14 -10 -17 -16
-9 -16 8 0 23 7 32 16 17 15 22 15 71 -1 29 -9 68 -26 86 -37 39 -24 112 -112
113 -136 0 -11 2 -12 6 -4 2 6 9 10 14 7 5 -4 6 2 2 11 -4 12 -3 15 6 10 19
-12 33 -58 21 -70 -7 -7 -10 -6 -10 2 0 7 -9 12 -19 12 -16 0 -19 -7 -18 -39
1 -24 6 -37 13 -34 7 2 15 0 18 -5 13 -21 -35 -20 -56 1 l-20 22 14 -30 c8
-16 13 -38 11 -48 -5 -18 12 -24 22 -7 10 17 35 -2 35 -27 0 -25 -1 -25 -25
-9 l-25 16 0 -35 c0 -19 -1 -38 -2 -42 -17 -70 -15 -82 11 -93 l26 -10 -27 3
c-24 4 -29 -1 -43 -37 -9 -22 -13 -42 -8 -43 4 -2 23 -12 41 -23 28 -17 32
-23 22 -35 -7 -8 -17 -15 -22 -15 -6 0 -5 6 2 15 10 12 6 18 -21 34 l-34 21
-37 -37 c-29 -28 -35 -40 -27 -50 9 -9 8 -18 -2 -30 -13 -17 -13 -17 7 0 26
22 35 22 27 0 -4 -13 0 -11 15 5 24 27 76 39 88 21 11 -18 -89 -101 -111 -93
-7 3 -16 0 -21 -7 -5 -8 -3 -10 7 -4 10 5 11 5 4 -3 -10 -11 -29 -15 -54 -13
-11 1 -10 4 4 14 10 8 15 19 11 26 -6 8 -1 10 17 6 29 -8 40 4 25 25 -8 12 -9
12 -4 -2 3 -12 0 -18 -10 -18 -8 0 -12 5 -9 10 8 13 -15 9 -31 -5 -9 -7 -9
-12 0 -18 6 -4 0 -6 -14 -5 -18 2 -25 -2 -25 -14 0 -25 -11 -30 -25 -13 -17
20 -51 20 -44 0 4 -8 18 -15 33 -15 15 0 21 -3 14 -8 -7 -5 6 -17 36 -33 l48
-25 -16 27 c-13 23 -21 27 -41 22 -24 -5 -24 -5 -7 13 18 19 19 18 48 -16 16
-19 29 -38 29 -43 0 -4 11 -23 25 -41 26 -34 35 -73 13 -60 -6 4 -8 3 -4 -4 3
-6 -2 -13 -11 -17 -10 -3 -27 -17 -37 -32 -19 -26 -19 -26 5 -44 30 -23 57
-26 39 -4 -12 15 -6 35 12 35 5 0 8 -7 4 -15 -9 -25 21 -17 41 10 13 18 24 23
40 19 19 -5 21 -10 12 -25 -6 -13 -6 -25 1 -38 14 -27 14 -27 -20 -41 -17 -7
-29 -15 -26 -17 7 -7 127 57 182 98 209 154 333 391 335 639 1 52 1 104 0 115
-1 19 -7 20 -91 17 l-90 -3 0 -52 c0 -29 7 -63 15 -77 8 -14 22 -41 31 -61 16
-36 16 -36 67 -31 l52 4 -35 -36 c-28 -30 -40 -36 -62 -32 -76 15 -143 -61
-136 -156 3 -58 -16 -79 -27 -28 -11 52 13 119 61 167 35 35 40 44 28 54 -18
15 -18 28 2 50 15 16 15 20 0 41 -9 12 -16 33 -16 45 0 22 -4 23 -65 23 -47 0
-65 4 -64 13 5 36 -2 187 -8 187 -5 0 -7 -24 -6 -52 3 -54 0 -55 -11 -5 -6 24
-8 26 -21 13 -19 -19 -19 -27 0 -20 11 5 15 -1 15 -19 0 -14 6 -28 13 -30 9
-4 8 -8 -3 -17 -11 -9 -12 -13 -2 -17 6 -2 12 -9 12 -14 0 -6 -6 -7 -12 -3 -9
5 -9 2 1 -9 11 -14 11 -20 0 -34 -8 -10 -9 -14 -2 -10 15 9 7 -74 -12 -118
l-12 -30 -11 35 c-8 27 -10 30 -11 12 -1 -13 -5 -21 -10 -17 -5 3 -13 1 -16
-5 -4 -6 -3 -10 2 -9 4 1 15 1 23 0 13 -1 13 -2 0 -11 -13 -8 -12 -10 3 -10 9
0 17 -5 17 -11 0 -17 -40 -79 -51 -79 -6 0 -7 -4 -4 -10 3 -5 -2 -10 -11 -10
-10 0 -14 3 -11 7 4 3 -2 17 -14 29 -15 16 -17 24 -8 29 7 5 10 4 6 -2 -4 -6
0 -13 8 -16 11 -5 12 -1 4 20 -7 19 -6 32 6 49 8 13 14 24 11 24 -2 0 2 25 9
57 7 31 11 62 8 70 -3 7 0 13 6 13 9 0 9 5 1 20 -8 16 -8 20 2 18 18 -4 37
-30 31 -44 -7 -18 12 -50 21 -35 4 6 2 11 -3 11 -15 0 -14 30 2 30 6 0 3 7 -8
16 -17 13 -18 16 -5 24 11 7 11 10 2 10 -7 0 -11 4 -8 8 2 4 -5 9 -16 9 -20 2
-20 1 -2 -12 18 -13 18 -14 -2 -9 -19 5 -22 13 -23 67 0 34 3 57 7 50 5 -8 13
-9 22 -3 10 7 11 10 3 10 -20 0 -15 18 12 48 14 15 25 21 25 15 0 -7 -4 -15
-10 -18 -5 -3 -10 -11 -10 -16 0 -6 7 -4 15 5 19 19 19 22 -2 50 l-17 23 -17
-21 c-10 -12 -21 -17 -25 -13 -5 4 -2 12 6 17 8 6 11 10 5 10 -5 0 -4 4 4 9
12 8 12 11 -1 24 -10 11 -19 12 -25 6 -7 -7 -26 5 -57 39 -25 27 -74 64 -107
82 -52 27 -65 31 -86 21 -31 -14 -33 -14 -27 4 5 11 330 185 347 185 3 0 7 -9
10 -19 4 -15 -3 -22 -27 -31 l-31 -11 40 -33 39 -33 39 30 38 31 38 -40 c21
-22 52 -61 69 -87 39 -56 112 -205 112 -228 0 -13 -19 -20 -88 -34 -102 -20
-115 -25 -106 -49 6 -15 18 -16 113 -10 58 4 108 8 110 10 7 6 -22 110 -50
175 -95 232 -314 421 -559 483 -76 20 -273 29 -343 16z m-151 -160 c7 -7 19
-8 36 -1 32 12 46 1 19 -14 -18 -9 -15 -13 34 -40 52 -28 69 -45 44 -45 -7 0
-34 14 -61 30 -41 26 -55 29 -90 24 -30 -5 -39 -4 -34 4 4 7 15 12 24 12 16 1
16 2 0 14 -10 7 -18 16 -18 20 0 10 35 7 46 -4z m582 3 c12 6 25 7 30 2 4 -4
1 -10 -5 -12 -18 -6 -16 -23 2 -23 8 0 15 -5 15 -11 0 -7 -12 -9 -36 -5 -29 6
-44 2 -85 -23 -27 -17 -54 -31 -59 -31 -23 0 -7 18 40 45 42 25 48 32 36 41
-21 15 -9 25 17 15 13 -5 32 -4 45 2z m106 -377 c-3 -9 -10 -13 -16 -10 -5 3
-4 12 3 20 15 18 22 13 13 -10z m159 -432 c20 -4 37 -11 37 -16 0 -11 -78 -2
-114 12 -19 8 -18 9 9 9 17 1 47 -2 68 -5z m-229 -102 c7 -11 -16 -37 -36 -40
-10 -2 -18 2 -18 8 0 5 6 10 14 10 8 0 18 5 22 12 5 7 3 8 -6 3 -9 -5 -11 -4
-6 3 8 14 23 16 30 4z m40 -43 c-3 -5 -10 -7 -15 -3 -5 3 -7 10 -3 15 3 5 10
7 15 3 5 -3 7 -10 3 -15z m105 0 c46 -19 67 -39 42 -39 -10 0 -100 46 -110 55
-10 11 19 4 68 -16z m-111 -130 c23 -22 42 -42 42 -44 0 -13 -19 -1 -65 40
-27 24 -43 44 -35 44 8 0 34 -18 58 -40z m-198 21 c0 -5 -4 -10 -10 -10 -5 0
-10 5 -10 10 0 6 5 10 10 10 6 0 10 -4 10 -10z m399 -17 c12 -14 18 -29 15
-32 -4 -3 -9 0 -11 7 -3 6 -9 12 -15 12 -6 0 -6 -6 2 -15 7 -8 23 -15 36 -15
28 0 40 -31 22 -59 -7 -12 -20 -21 -30 -21 -18 0 -48 25 -48 41 0 5 -8 9 -17
9 -19 0 -53 28 -53 44 0 24 32 56 55 56 14 0 32 -11 44 -27z m-111 -69 c35
-10 26 -24 -16 -24 -24 0 -54 -10 -83 -28 -73 -46 -76 -47 -39 -7 32 34 80 64
105 64 6 1 20 -2 33 -5z m-150 -126 c7 -9 6 -17 -3 -25 -10 -10 -16 -9 -25 2
-12 14 -6 35 9 35 5 0 13 -6 19 -12z m-60 -40 c-6 -18 -28 -21 -28 -4 0 9 7
16 16 16 9 0 14 -5 12 -12z"/>
<path d="M491 1397 c-16 -20 34 -66 52 -48 9 10 8 11 -7 5 -16 -6 -18 -4 -13
10 6 14 3 17 -9 12 -12 -4 -14 -1 -9 14 7 23 2 26 -14 7z"/>
<path d="M316 1375 c8 -38 29 -62 39 -46 3 7 1 10 -7 9 -7 -2 -14 8 -16 22 -2
14 -8 30 -14 35 -6 7 -7 0 -2 -20z"/>
<path d="M1303 1365 c-27 -26 -31 -44 -6 -24 15 13 16 12 11 -8 -4 -13 -2 -23
3 -23 5 0 9 9 9 20 0 11 6 20 14 20 8 0 17 4 20 9 4 5 -3 7 -14 4 -16 -4 -19
-2 -14 11 8 20 4 19 -23 -9z"/>
<path d="M445 1359 c-4 -6 3 -21 14 -33 19 -20 20 -24 6 -36 -14 -11 -19 -7
-16 13 0 4 -6 7 -14 7 -10 0 -12 6 -8 18 6 15 5 15 -10 3 -16 -13 -16 -15 -1
-32 10 -11 12 -19 6 -19 -6 0 -14 5 -17 10 -5 8 -11 7 -21 -1 -17 -14 -18 -29
-3 -29 5 0 8 4 4 9 -3 5 0 13 6 17 9 5 10 1 7 -14 -4 -12 0 -26 8 -32 14 -13
34 -6 34 12 0 5 11 19 25 29 15 13 22 26 18 36 -5 12 -2 15 10 10 16 -6 16 -5
1 18 -17 26 -38 32 -49 14z m26 -12 c-1 -12 -15 -9 -19 4 -3 6 1 10 8 8 6 -3
11 -8 11 -12z m-37 -82 c-7 -16 -24 -21 -24 -6 0 8 7 13 27 20 1 1 0 -6 -3
-14z"/>
<path d="M1455 1360 c-3 -5 -2 -10 4 -10 5 0 13 5 16 10 3 6 2 10 -4 10 -5 0
-13 -4 -16 -10z"/>
<path d="M1476 1344 c-15 -14 -25 -29 -21 -32 3 -3 18 6 32 21 35 34 25 44
-11 11z"/>
<path d="M290 1315 c18 -14 36 -23 38 -20 7 7 -41 44 -57 45 -8 0 0 -11 19
-25z"/>
<path d="M887 1333 c-4 -3 -7 -13 -7 -22 1 -13 2 -13 11 2 6 9 14 15 20 12 5
-4 9 -1 9 4 0 12 -23 15 -33 4z"/>
<path d="M1343 1315 c-15 -13 -23 -25 -17 -25 6 0 21 11 34 25 30 32 19 32
-17 0z"/>
<path d="M1491 1321 c-8 -6 -9 -11 -3 -15 6 -3 14 -1 17 5 9 14 2 20 -14 10z"/>
<path d="M250 1311 c0 -12 48 -46 55 -39 3 2 -9 14 -25 27 -17 12 -30 17 -30
12z"/>
<path d="M1373 1301 c-24 -20 -30 -41 -13 -41 6 0 9 5 8 11 -4 14 29 36 38 26
4 -4 -1 -17 -12 -29 l-18 -23 23 22 c15 13 21 28 18 37 -8 20 -17 20 -44 -3z"/>
<path d="M899 1300 c-7 -18 7 -61 24 -72 23 -14 31 -8 10 7 -13 9 -23 28 -25
48 -2 19 -5 26 -9 17z"/>
<path d="M847 1293 c-12 -12 -7 -22 13 -28 11 -4 20 -15 20 -26 0 -11 4 -18 9
-15 14 9 1 46 -16 46 -9 0 -13 6 -9 15 5 15 -5 20 -17 8z"/>
<path d="M946 1286 c3 -8 -2 -16 -10 -19 -13 -4 -13 -5 1 -3 19 1 32 36 14 36
-6 0 -8 -6 -5 -14z"/>
<path d="M1525 1280 c-4 -6 -12 -7 -18 -3 -7 4 -6 -1 2 -11 10 -12 16 -14 21
-5 4 6 14 15 21 20 11 7 10 9 -3 9 -9 0 -20 -5 -23 -10z"/>
<path d="M216 1258 c3 -5 12 -7 20 -4 7 3 16 1 19 -4 4 -6 11 -10 17 -10 7 0
7 5 -1 14 -13 15 -64 19 -55 4z"/>
<path d="M1411 1246 c-40 -42 -3 -64 40 -25 l24 21 -28 -16 c-40 -24 -56 -9
-21 20 16 13 24 23 18 24 -6 0 -21 -11 -33 -24z"/>
<path d="M1556 1261 c-12 -5 -15 -10 -9 -14 6 -4 16 0 23 8 14 17 13 17 -14 6z"/>
<path d="M364 1241 c20 -22 9 -29 -14 -8 -12 10 -12 9 -2 -5 14 -18 1 -34 -20
-23 -7 4 1 -5 17 -20 29 -26 29 -26 5 -19 -14 4 -31 9 -37 11 -22 8 -14 -12
14 -38 14 -13 23 -19 19 -12 -4 7 2 17 14 23 17 9 19 14 10 25 -17 21 -2 39
18 23 16 -12 16 -11 2 6 -14 18 -13 19 4 13 16 -6 17 -5 6 8 -7 9 -23 21 -34
27 -21 11 -21 11 -2 -11z m-29 -89 c-3 -3 -11 0 -18 7 -9 10 -8 11 6 5 10 -3
15 -9 12 -12z"/>
<path d="M210 1230 c0 -5 5 -10 11 -10 5 0 7 5 4 10 -3 6 -8 10 -11 10 -2 0
-4 -4 -4 -10z"/>
<path d="M1518 1223 c7 -3 16 -2 19 1 4 3 -2 6 -13 5 -11 0 -14 -3 -6 -6z"/>
<path d="M177 1202 c-3 -4 11 -14 29 -23 19 -9 34 -13 34 -8 0 12 -58 41 -63
31z"/>
<path d="M1460 1191 c0 -11 -4 -23 -10 -26 -5 -3 -10 -1 -10 4 0 6 -5 11 -12
11 -8 0 -7 -6 4 -16 19 -19 38 -11 38 17 0 20 15 26 23 9 3 -6 4 -5 3 2 -5 22
-36 22 -36 -1z"/>
<path d="M1573 1203 c-7 -3 -13 -8 -13 -12 0 -8 47 -7 55 1 8 7 -27 16 -42 11z"/>
<path d="M667 1152 l-47 -47 49 -48 c41 -40 53 -47 68 -39 43 24 64 73 30 71
-9 0 -9 -2 0 -6 8 -3 3 -15 -16 -35 -16 -17 -34 -28 -40 -24 -16 10 -13 29 4
23 8 -4 17 -1 21 5 5 7 3 8 -5 4 -8 -5 -14 0 -18 13 -3 12 -12 21 -20 21 -9 0
-13 6 -9 15 6 16 -9 21 -19 5 -3 -5 3 -15 15 -22 11 -7 20 -20 19 -28 0 -10
-2 -11 -6 -2 -2 6 -10 12 -18 12 -7 0 -18 7 -25 15 -11 13 -6 23 32 60 l45 45
26 -30 c15 -16 32 -30 37 -30 6 0 -7 16 -29 35 -21 19 -40 35 -43 35 -2 0 -25
-21 -51 -48z"/>
<path d="M1053 1177 c-10 -13 -25 -26 -33 -30 -11 -4 -10 -6 4 -6 10 -1 27 10
38 25 l20 25 44 -43 43 -42 -41 -42 c-35 -36 -44 -40 -60 -31 -10 7 -18 17
-18 24 0 6 -6 14 -12 17 -7 4 -3 4 10 2 12 -2 22 0 22 5 0 10 -21 12 -44 3
-13 -5 -10 -12 16 -40 18 -19 37 -34 43 -34 5 0 30 20 54 45 49 49 49 46 -16
112 -38 39 -46 40 -70 10z"/>
<path d="M170 1170 c8 -5 22 -10 30 -10 13 0 13 1 0 10 -8 5 -22 10 -30 10
-13 0 -13 -1 0 -10z"/>
<path d="M712 1158 c-7 -7 -12 -19 -12 -27 1 -13 3 -13 11 2 6 9 14 15 20 12
5 -4 9 -2 9 4 0 16 -16 21 -28 9z"/>
<path d="M1565 1160 c-8 -13 5 -13 25 0 13 8 13 10 -2 10 -9 0 -20 -4 -23 -10z"/>
<path d="M150 1151 c0 -4 11 -13 25 -19 14 -6 25 -8 25 -3 0 4 -11 13 -25 19
-14 6 -25 8 -25 3z"/>
<path d="M935 1150 c-3 -5 -3 -10 1 -10 4 0 -1 -10 -12 -22 -17 -21 -17 -21 8
1 15 13 25 28 22 32 -7 12 -11 11 -19 -1z"/>
<path d="M1080 1150 c20 -13 33 -13 25 0 -3 6 -14 10 -23 10 -15 0 -15 -2 -2
-10z"/>
<path d="M1480 1145 c-19 -7 -29 -14 -21 -14 8 -1 11 -8 8 -21 -5 -19 -4 -19
23 3 16 12 29 28 29 35 1 6 0 12 -1 11 -2 0 -19 -7 -38 -14z m20 -9 c0 -3 -4
-8 -10 -11 -5 -3 -10 -1 -10 4 0 6 5 11 10 11 6 0 10 -2 10 -4z"/>
<path d="M280 1131 c0 -13 20 -25 42 -26 25 -2 22 2 -12 20 -16 9 -30 11 -30
6z"/>
<path d="M140 1120 c0 -8 24 -20 41 -20 6 0 8 4 5 9 -8 12 -46 21 -46 11z"/>
<path d="M712 1113 c-8 -8 -9 -13 -2 -13 5 0 10 -8 11 -17 0 -14 2 -15 6 -3 3
8 9 17 13 20 4 3 2 10 -4 16 -9 8 -15 7 -24 -3z"/>
<path d="M1126 1105 c4 -10 0 -15 -12 -16 -12 0 -14 -3 -6 -6 15 -6 44 16 36
28 -9 15 -24 10 -18 -6z"/>
<path d="M1605 1099 c-28 -18 -29 -19 -7 -19 21 0 52 20 52 34 0 10 -14 5 -45
-15z"/>
<path d="M102 1068 c-7 -26 -12 -52 -12 -57 0 -7 41 -11 115 -11 105 0 115 2
115 18 0 15 -19 23 -100 42 -69 16 -100 28 -103 39 -1 9 -8 -5 -15 -31z"/>
<path d="M1081 1088 c0 -16 2 -18 6 -8 3 8 11 18 17 22 7 5 4 8 -6 8 -12 0
-18 -7 -17 -22z"/>
<path d="M1497 1094 c-16 -9 -26 -18 -23 -22 4 -3 12 0 18 6 24 24 31 11 8
-13 -31 -33 -23 -38 20 -14 22 12 26 17 12 13 -23 -6 -23 -6 -7 20 20 30 12
32 -28 10z"/>
<path d="M290 1090 l-25 -6 23 -13 c13 -7 26 -10 30 -7 3 3 -1 6 -9 7 -8 0 -6
3 5 8 27 10 7 19 -24 11z"/>
<path d="M591 1068 c1 -18 3 -25 6 -15 2 9 9 15 14 12 14 -9 11 5 -6 21 -13
14 -15 12 -14 -18z"/>
<path d="M416 1059 c-3 -17 -6 -64 -6 -105 l0 -73 -72 -3 -73 -3 -3 -35 c-2
-19 -8 -41 -14 -48 -8 -9 -6 -17 6 -30 21 -24 21 -58 -1 -71 -10 -5 -16 -11
-13 -13 3 -2 23 -12 45 -23 42 -22 47 -21 146 10 11 4 19 2 19 -3 0 -5 -26
-17 -57 -26 l-58 -18 2 -56 c1 -31 2 -63 3 -71 0 -10 3 -11 14 -2 12 10 18 6
32 -18 10 -17 22 -31 26 -31 4 0 8 -9 8 -20 0 -14 10 -22 38 -30 20 -5 44 -14
52 -20 12 -8 26 2 62 43 55 60 66 51 13 -10 -19 -23 -35 -45 -35 -50 0 -4 20
-21 45 -38 24 -16 45 -33 45 -36 0 -3 14 -24 31 -45 22 -28 29 -46 25 -65 -4
-20 1 -29 23 -42 29 -17 29 -17 33 13 3 16 0 34 -5 39 -5 5 -7 19 -5 32 2 18
10 25 31 27 25 3 27 6 22 40 -5 44 2 72 19 72 8 0 11 -17 8 -60 l-4 -60 80 0
79 0 -1 37 c-2 35 -6 38 -84 79 -45 24 -82 41 -82 38 0 -4 -6 -1 -13 5 -8 6
-17 8 -20 4 -4 -3 -7 -1 -7 5 0 6 -7 9 -15 6 -8 -4 -15 -1 -15 5 0 6 -3 10 -7
9 -5 -2 -22 3 -40 11 -24 10 -31 18 -28 34 4 20 3 21 -9 5 -7 -10 -16 -15 -19
-11 -4 3 -1 13 6 22 10 14 10 14 -4 4 -13 -11 -20 -9 -40 8 -13 12 -23 25 -22
30 2 4 -5 5 -14 2 -10 -4 -14 -2 -10 4 4 5 -5 21 -18 33 -44 41 -107 165 -74
144 18 -10 49 -13 49 -3 0 12 -30 19 -30 6 0 -7 -7 -3 -15 7 -8 11 -15 16 -16
10 0 -5 -4 0 -9 11 -4 11 -6 40 -4 65 3 36 2 40 -5 20 -7 -19 -9 -7 -8 47 1
61 4 73 22 82 18 10 18 11 -4 5 l-24 -6 7 71 c6 74 3 93 -8 40z m-21 -290
c-16 -4 -50 -7 -74 -8 -65 -2 -38 17 29 21 64 3 88 -4 45 -13z m120 -219 c-11
-19 -96 -71 -108 -67 -6 2 13 20 43 40 54 37 77 46 65 27z m232 -215 c-8 -21
-19 -41 -25 -43 -12 -4 -11 1 19 76 17 40 22 12 6 -33z"/>
<path d="M524 1053 c-6 -16 -12 -65 -15 -125 0 -21 -15 -24 -22 -5 -2 6 -4 0
-4 -16 0 -20 3 -25 11 -18 13 11 16 -4 17 -86 1 -24 6 -43 11 -43 6 0 7 -11 4
-25 -4 -14 -2 -25 4 -25 5 0 10 -8 10 -18 0 -10 4 -22 10 -28 6 -6 3 -14 -10
-22 -19 -11 -20 -10 -15 25 3 27 2 34 -5 23 -5 -8 -10 -26 -11 -40 0 -14 -3
-19 -6 -12 -2 6 -9 12 -14 12 -5 0 -4 -9 3 -20 9 -14 14 -16 20 -7 6 9 8 9 8
-1 0 -7 5 -10 11 -6 8 4 9 -1 4 -17 -4 -16 -3 -20 3 -11 7 11 10 10 16 -3 9
-24 8 -27 -6 -19 -8 4 -10 3 -5 -2 5 -5 13 -10 18 -10 5 -1 12 -3 17 -4 4 -1
13 -3 21 -4 8 0 16 -7 18 -14 3 -7 -1 -10 -11 -6 -12 4 -15 2 -10 -9 10 -26
30 -27 29 -2 0 13 -3 26 -7 30 -4 4 -5 12 -4 18 2 7 1 9 -1 4 -3 -4 -9 -5 -14
-1 -5 3 -9 0 -9 -7 0 -7 -6 -4 -14 6 -8 11 -12 23 -10 27 2 4 0 9 -6 13 -17
10 -12 35 6 28 13 -5 13 -7 2 -14 -10 -7 -9 -9 4 -9 9 0 20 -5 24 -12 5 -7 3
-8 -6 -3 -9 6 -11 4 -6 -4 5 -7 14 -10 21 -7 15 5 50 -28 42 -41 -10 -16 38
-9 50 6 7 9 13 11 13 5 0 -5 -5 -15 -11 -21 -8 -8 -8 -13 0 -17 6 -4 11 -12
11 -18 0 -6 -10 -3 -22 8 -23 19 -23 19 -6 -2 14 -16 15 -23 6 -32 -9 -9 -9
-12 2 -12 13 0 13 -2 0 -10 -9 -6 -10 -10 -3 -10 6 0 20 -3 30 -7 17 -6 17 -6
1 10 -31 31 3 68 38 42 11 -7 19 -19 20 -27 0 -7 2 -21 2 -31 1 -10 5 -16 10
-14 4 3 5 29 4 59 -4 50 -6 54 -41 70 -20 10 -56 34 -78 53 -24 21 -44 31 -48
25 -3 -5 -12 -10 -18 -10 -7 0 -5 6 5 13 15 12 15 18 -13 72 -16 32 -29 66
-29 75 0 13 -6 17 -20 13 -11 -3 -20 0 -20 6 0 6 7 11 15 11 11 0 15 12 15 46
0 41 -2 45 -20 39 -15 -5 -20 -2 -20 14 0 26 17 36 36 20 20 -16 26 -7 29 43
2 35 1 37 -4 11 l-6 -32 -25 19 c-15 12 -21 23 -15 27 6 5 17 21 25 36 12 25
12 29 0 37 -21 14 -27 12 -36 -7z m66 -357 c0 -2 -9 -6 -20 -9 -11 -3 -20 -1
-20 4 0 5 9 9 20 9 11 0 20 -2 20 -4z"/>
<path d="M1095 1060 c-4 -6 -11 -7 -17 -4 -7 4 -8 2 -4 -5 6 -9 11 -9 22 0 14
11 18 19 10 19 -3 0 -8 -5 -11 -10z"/>
<path d="M814 1043 c5 -9 -6 -18 -34 -29 -44 -18 -87 -62 -96 -99 -5 -22 -7
-23 -40 -9 -46 19 -47 19 -39 -28 10 -66 15 -78 33 -78 14 0 14 -2 3 -9 -20
-13 0 -67 24 -63 10 2 14 -1 10 -7 -4 -7 3 -11 18 -11 24 0 24 1 11 38 -17 49
-18 146 0 180 17 33 64 78 72 70 3 -4 -4 -12 -16 -18 -28 -15 -59 -84 -60
-131 0 -58 28 -139 48 -139 10 0 24 -6 31 -12 7 -7 1 5 -13 26 -20 29 -26 51
-26 91 0 37 -4 55 -15 58 -20 8 -2 56 35 92 16 15 26 33 23 38 -4 6 0 8 10 4
9 -3 26 -3 38 1 20 8 20 8 -2 27 -12 11 -19 14 -15 8z"/>
<path d="M1176 1032 c-3 -4 4 -9 15 -9 23 -2 25 3 4 10 -8 4 -16 3 -19 -1z"/>
<path d="M477 1013 c-11 -11 -8 -20 7 -20 8 0 12 6 9 14 -6 15 -7 15 -16 6z"/>
<path d="M602 985 c0 -16 2 -22 5 -12 2 9 2 23 0 30 -3 6 -5 -1 -5 -18z"/>
<path d="M860 990 c0 -6 -14 -23 -31 -38 l-31 -26 30 -27 31 -28 -40 -36 c-47
-42 -46 -61 5 -100 44 -34 53 -31 22 6 -31 36 -33 69 -7 94 18 15 24 16 50 4
28 -12 31 -18 31 -58 0 -40 -1 -42 -17 -30 -10 8 -7 0 7 -16 l24 -30 40 43
c46 50 53 96 21 132 -16 17 -17 23 -5 30 11 7 7 16 -18 45 -18 19 -32 31 -32
24 0 -6 10 -19 22 -28 25 -21 19 -50 -12 -58 -11 -3 -20 -11 -20 -18 0 -7 -6
-18 -14 -24 -10 -9 -22 -2 -55 30 -39 40 -50 59 -33 59 5 0 18 9 30 20 l22 21
1 -23 c1 -18 2 -19 6 -5 3 10 11 16 18 13 7 -2 16 1 19 9 3 9 0 12 -9 9 -7 -3
-23 -1 -34 6 -15 8 -21 8 -21 0z"/>
<path d="M74 934 c-10 -52 2 -229 20 -294 43 -159 115 -283 231 -396 160 -156
365 -236 593 -232 l97 1 -125 7 c-130 8 -178 16 -270 48 -92 33 -111 44 -105
62 3 10 1 29 -4 43 -8 21 -7 26 11 31 25 6 38 0 38 -17 0 -17 37 -39 45 -27 3
6 1 10 -6 10 -7 0 -5 8 6 20 19 21 45 27 45 9 0 -5 -5 -7 -12 -3 -7 5 -8 3 -4
-5 5 -7 0 -21 -10 -32 -15 -16 -15 -19 -2 -19 9 0 26 9 39 20 l24 20 -47 44
c-26 25 -45 51 -43 58 7 19 -78 69 -128 75 -71 7 -88 13 -81 25 4 7 3 8 -5 4
-6 -4 -9 -11 -6 -16 5 -9 -38 -40 -56 -40 -6 0 -9 7 -6 14 4 10 1 13 -9 9 -7
-3 -14 -1 -14 5 0 6 -9 8 -20 5 -20 -5 -25 6 -22 50 1 10 -5 17 -15 17 -10 0
1 12 25 28 24 15 45 36 47 47 16 83 16 93 -9 121 -20 24 -33 29 -77 31 -30 1
-57 2 -61 3 -5 0 -8 14 -8 32 0 17 -8 40 -17 51 -17 18 -17 20 6 38 13 10 36
19 52 19 36 0 42 10 55 98 l10 72 -87 0 -88 0 -7 -36z m521 -694 c10 -16 -16
-43 -28 -31 -11 11 -2 41 12 41 5 0 13 -5 16 -10z"/>
<path d="M1015 960 c-3 -6 1 -7 9 -4 18 7 21 14 7 14 -6 0 -13 -4 -16 -10z"/>
<path d="M1313 950 c1 -21 10 -18 13 5 1 8 -2 15 -6 15 -5 0 -8 -9 -7 -20z"/>
<path d="M1344 959 c-3 -6 -2 -15 3 -20 5 -5 9 -1 9 11 0 23 -2 24 -12 9z"/>
<path d="M900 941 c0 -9 -8 -11 -24 -7 -26 7 -44 -8 -25 -20 8 -5 9 -3 4 6
-10 16 36 3 47 -14 6 -8 8 -7 8 2 0 6 8 12 18 13 13 0 14 2 2 6 -8 3 -18 11
-22 17 -5 7 -8 7 -8 -3z"/>
<path d="M933 943 c9 -2 17 -11 17 -19 0 -8 5 -12 10 -9 15 9 -8 35 -29 34
-13 -1 -13 -2 2 -6z"/>
<path d="M445 930 c-3 -5 -1 -10 4 -10 6 0 11 5 11 10 0 6 -2 10 -4 10 -3 0
-8 -4 -11 -10z"/>
<path d="M1043 888 c6 -18 13 -35 14 -37 2 -3 17 9 33 24 27 26 29 30 13 37
-10 3 -30 7 -45 7 -25 1 -26 0 -15 -31z"/>
<path d="M1186 905 c4 -8 7 -15 9 -15 2 0 5 7 9 15 3 9 0 15 -9 15 -9 0 -12
-6 -9 -15z"/>
<path d="M883 888 c15 -24 29 -27 35 -9 2 6 -3 8 -12 5 -11 -4 -16 -1 -16 10
0 9 -5 16 -11 16 -7 0 -6 -8 4 -22z"/>
<path d="M444 883 c-8 -13 -7 -26 2 -48 l13 -30 1 48 c0 26 -1 47 -3 47 -1 0
-7 -8 -13 -17z"/>
<path d="M1166 808 c-16 -16 -53 -43 -82 -60 -30 -16 -60 -39 -68 -49 -7 -10
-15 -17 -18 -14 -2 3 -5 -2 -5 -10 0 -16 70 -85 86 -85 5 0 19 12 31 27 l21
28 -21 17 c-12 10 -28 18 -36 18 -7 0 -16 4 -19 10 -6 10 28 0 65 -20 16 -9
22 -5 35 20 12 24 13 31 3 34 -35 11 -40 16 -12 12 31 -5 32 -4 42 47 6 29 9
53 9 53 -1 1 -15 -12 -31 -28z"/>
<path d="M867 823 c-5 -8 9 -53 16 -53 2 0 2 14 -1 30 -4 31 -8 36 -15 23z"/>
<path d="M1320 799 c0 -11 4 -18 10 -14 5 3 7 12 3 20 -7 21 -13 19 -13 -6z"/>
<path d="M486 795 c-3 -8 -1 -15 4 -15 6 0 10 7 10 15 0 8 -2 15 -4 15 -2 0
-6 -7 -10 -15z"/>
<path d="M457 784 c3 -9 0 -20 -8 -26 -12 -8 -11 -9 1 -5 17 4 27 47 11 47 -6
0 -8 -7 -4 -16z"/>
<path d="M224 736 c-4 -16 -13 -26 -24 -26 -11 0 -22 -4 -25 -10 -4 -6 5 -10
19 -10 28 0 70 34 64 53 -8 22 -27 18 -34 -7z"/>
<path d="M1306 751 c-4 -7 -5 -15 -2 -18 9 -9 19 4 14 18 -4 11 -6 11 -12 0z"/>
<path d="M1575 750 c3 -5 8 -10 11 -10 2 0 4 5 4 10 0 6 -5 10 -11 10 -5 0 -7
-4 -4 -10z"/>
<path d="M470 746 c0 -3 9 -10 20 -16 11 -6 20 -8 20 -6 0 3 -9 10 -20 16 -11
6 -20 8 -20 6z"/>
<path d="M1351 734 c0 -11 3 -14 6 -6 3 7 2 16 -1 19 -3 4 -6 -2 -5 -13z"/>
<path d="M1288 683 c7 -3 16 -2 19 1 4 3 -2 6 -13 5 -11 0 -14 -3 -6 -6z"/>
<path d="M700 637 l34 -37 30 28 29 27 -20 -30 -21 -31 24 -21 c13 -12 24 -17
24 -12 0 6 5 7 11 3 7 -4 9 0 5 13 -7 22 26 59 43 48 7 -4 11 4 11 19 0 20 -5
26 -22 25 -22 0 -22 -1 -3 -10 20 -9 -29 -6 -135 8 l-44 6 34 -36z"/>
<path d="M965 647 c-40 -24 -45 -39 -42 -124 2 -46 6 -85 9 -88 3 -3 18 1 34
10 16 8 36 15 45 15 25 0 29 11 12 28 -10 10 -29 15 -54 13 -34 -2 -39 0 -39
18 0 15 6 21 23 21 35 0 37 8 16 48 -11 21 -14 29 -7 18 40 -57 42 -58 71 -45
15 7 27 15 27 19 0 3 -17 22 -37 42 -33 31 -41 34 -58 25z"/>
<path d="M1296 625 c-3 -8 -1 -15 4 -15 6 0 10 7 10 15 0 8 -2 15 -4 15 -2 0
-6 -7 -10 -15z"/>
<path d="M840 589 c0 -5 -4 -8 -9 -5 -5 4 -7 -3 -4 -13 3 -11 13 -21 24 -24
15 -4 19 0 19 24 0 19 -5 29 -15 29 -8 0 -15 -5 -15 -11z"/>
<path d="M1063 528 c-37 -22 -40 -30 -18 -48 11 -9 20 -6 46 18 18 16 29 35
25 41 -9 14 -15 13 -53 -11z"/>
<path d="M1219 513 c-13 -16 -12 -17 4 -4 16 13 21 21 13 21 -2 0 -10 -8 -17
-17z"/>
<path d="M650 511 c0 -6 4 -13 10 -16 6 -3 7 1 4 9 -7 18 -14 21 -14 7z"/>
<path d="M842 493 c6 -7 14 -10 19 -7 15 9 10 20 -10 20 -15 0 -17 -3 -9 -13z"/>
<path d="M1185 490 c3 -5 8 -10 11 -10 2 0 4 5 4 10 0 6 -5 10 -11 10 -5 0 -7
-4 -4 -10z"/>
<path d="M730 486 c0 -2 7 -9 15 -16 9 -7 15 -8 15 -2 0 5 -7 12 -15 16 -8 3
-15 4 -15 2z"/>
<path d="M293 458 c-15 -23 -32 -58 -29 -58 2 0 16 16 30 35 15 19 23 35 17
35 -5 0 -13 -6 -18 -12z"/>
<path d="M740 441 c0 -5 7 -11 15 -15 8 -3 15 -1 15 3 0 5 -7 11 -15 15 -8 3
-15 1 -15 -3z"/>
<path d="M995 273 c2 -10 4 -21 4 -24 1 -3 13 -11 27 -18 17 -8 25 -18 24 -34
-1 -12 -2 -35 -1 -51 1 -22 4 -26 14 -17 8 6 12 23 10 38 -3 21 2 35 21 52 34
32 33 42 -3 35 -22 -5 -37 0 -57 15 -33 26 -43 27 -39 4z"/>
<path d="M840 186 c0 -2 8 -10 18 -17 15 -13 16 -12 3 4 -13 16 -21 21 -21 13z"/>
<path d="M930 175 c-7 -9 -11 -17 -9 -20 3 -2 10 5 17 15 14 24 10 26 -8 5z"/>
<path d="M918 113 c7 -3 16 -2 19 1 4 3 -2 6 -13 5 -11 0 -14 -3 -6 -6z"/>
<path d="M1150 55 c-19 -7 -28 -14 -20 -14 8 0 29 6 45 14 39 17 21 18 -25 0z"/>
<path d="M1045 30 c-27 -7 -27 -8 -5 -8 14 0 36 4 50 8 20 6 21 8 5 8 -11 0
-33 -4 -50 -8z"/>
</g>
</svg>
